<svg width="27" height="26" viewBox="0 0 27 26" fill="none" xmlns="http://www.w3.org/2000/svg">
<path d="M26.1562 13.375C26.1562 14.4648 25.248 15.373 24.2188 15.373H15.5V24.0918C15.5 25.1211 14.5918 25.9688 13.5625 25.9688C12.4727 25.9688 11.625 25.1211 11.625 24.0918V15.373H2.90625C1.81641 15.373 0.96875 14.4648 0.96875 13.375C0.96875 12.3457 1.81641 11.498 2.90625 11.498H11.625V2.7793C11.625 1.68945 12.4727 0.78125 13.5625 0.78125C14.5918 0.78125 15.5 1.68945 15.5 2.7793V11.498H24.2188C25.248 11.4375 26.1562 12.3457 26.1562 13.375Z" fill="white"/>
</svg>
